<svg xmlns="http://www.w3.org/2000/svg" width="400" height="250" viewBox="0 0 400 250">
<defs><linearGradient id="bg" x1="0%" y1="0%" x2="100%" y2="100%"><stop offset="0%" stop-color="#1e40af"/><stop offset="100%" stop-color="#3b82f6"/></linearGradient></defs>
<rect width="400" height="250" fill="url(#bg)"/>
<circle cx="200" cy="55" r="45" fill="white" opacity="0.03"/>
<circle cx="250" cy="215" r="55" fill="white" opacity="0.02"/>
<rect x="140" y="80" width="120" height="150" rx="4" fill="white" opacity="0.2"/><rect x="155" y="95" width="25" height="20" rx="2" fill="white" opacity="0.3"/><rect x="185" y="95" width="25" height="20" rx="2" fill="white" opacity="0.3"/><rect x="220" y="95" width="25" height="20" rx="2" fill="white" opacity="0.3"/><rect x="155" y="125" width="25" height="20" rx="2" fill="white" opacity="0.3"/><rect x="185" y="125" width="25" height="20" rx="2" fill="white" opacity="0.3"/><rect x="220" y="125" width="25" height="20" rx="2" fill="white" opacity="0.3"/><rect x="155" y="155" width="25" height="20" rx="2" fill="white" opacity="0.3"/><rect x="185" y="155" width="25" height="20" rx="2" fill="white" opacity="0.3"/><rect x="220" y="155" width="25" height="20" rx="2" fill="white" opacity="0.3"/><rect x="185" y="195" width="30" height="35" rx="2" fill="white" opacity="0.4"/>
</svg>