<svg xmlns="http://www.w3.org/2000/svg" width="400" height="250" viewBox="0 0 400 250">
<defs><linearGradient id="bg" x1="0%" y1="0%" x2="100%" y2="100%"><stop offset="0%" stop-color="#374151"/><stop offset="100%" stop-color="#6b7280"/></linearGradient></defs>
<rect width="400" height="250" fill="url(#bg)"/>
<circle cx="140" cy="45" r="51" fill="white" opacity="0.03"/>
<circle cx="290" cy="209" r="65" fill="white" opacity="0.02"/>
<rect x="145" y="80" width="110" height="130" rx="3" fill="white" opacity="0.15"/><rect x="155" y="90" width="20" height="15" rx="1" fill="white" opacity="0.2"/><rect x="180" y="90" width="20" height="15" rx="1" fill="white" opacity="0.2"/><rect x="205" y="90" width="20" height="15" rx="1" fill="white" opacity="0.2"/><rect x="230" y="90" width="20" height="15" rx="1" fill="white" opacity="0.2"/><rect x="155" y="115" width="20" height="15" rx="1" fill="white" opacity="0.2"/><rect x="180" y="115" width="20" height="15" rx="1" fill="white" opacity="0.2"/><rect x="205" y="115" width="20" height="15" rx="1" fill="white" opacity="0.2"/><rect x="230" y="115" width="20" height="15" rx="1" fill="white" opacity="0.2"/><rect x="155" y="140" width="20" height="15" rx="1" fill="white" opacity="0.2"/><rect x="180" y="140" width="20" height="15" rx="1" fill="white" opacity="0.2"/><rect x="205" y="140" width="20" height="15" rx="1" fill="white" opacity="0.2"/><rect x="230" y="140" width="20" height="15" rx="1" fill="white" opacity="0.2"/><rect x="185" y="170" width="30" height="40" rx="2" fill="white" opacity="0.3"/>
</svg>