<svg xmlns="http://www.w3.org/2000/svg" width="400" height="250" viewBox="0 0 400 250">
<defs><linearGradient id="bg" x1="0%" y1="0%" x2="100%" y2="100%"><stop offset="0%" stop-color="#dc2626"/><stop offset="100%" stop-color="#ef4444"/></linearGradient></defs>
<rect width="400" height="250" fill="url(#bg)"/>
<circle cx="230" cy="60" r="42" fill="white" opacity="0.03"/>
<circle cx="230" cy="218" r="50" fill="white" opacity="0.02"/>
<rect x="145" y="110" width="110" height="100" rx="3" fill="white" opacity="0.2"/><rect x="145" y="60" width="110" height="55" rx="3" fill="white" opacity="0.15"/><line x1="145" y1="110" x2="255" y2="110" stroke="white" stroke-width="2" opacity="0.3"/><rect x="160" y="70" width="20" height="15" rx="2" fill="white" opacity="0.25"/><rect x="190" y="70" width="20" height="15" rx="2" fill="white" opacity="0.25"/><rect x="220" y="70" width="20" height="15" rx="2" fill="white" opacity="0.25"/><rect x="160" y="120" width="20" height="15" rx="2" fill="white" opacity="0.25"/><rect x="190" y="120" width="20" height="15" rx="2" fill="white" opacity="0.25"/><rect x="220" y="120" width="20" height="15" rx="2" fill="white" opacity="0.25"/><rect x="185" y="165" width="30" height="40" rx="2" fill="white" opacity="0.35"/>
</svg>